<svg width="347" height="76" viewBox="0 0 347 76" fill="none" xmlns="http://www.w3.org/2000/svg">
<circle cx="33.5" cy="33.5" r="32.5" stroke="#6B9FCB" stroke-width="2"/>
<path d="M17.9019 45.6588C17.7318 46.1691 17.848 46.7315 18.2065 47.1327C18.565 47.5338 19.1109 47.7122 19.6371 47.6003L26.5492 46.1296C29.7528 47.5597 33.4051 47.9614 36.897 47.2696C40.5638 46.5432 43.847 44.6509 46.1138 41.9009C48.3851 39.1453 49.4751 35.7187 49.1364 32.2607C48.7979 28.8051 47.0623 25.615 44.3097 23.2672C41.5609 20.9226 37.9764 19.5662 34.2287 19.4142C30.4809 19.2623 26.7795 20.3231 23.8117 22.4286C20.8406 24.5364 18.7907 27.5628 18.1008 30.9711C17.4593 34.1406 18.0452 37.3916 19.7237 40.1933L17.9019 45.6588Z" stroke="#6B9FCB" stroke-width="3" stroke-linecap="round" stroke-linejoin="round"/>
<circle cx="27.2" cy="33.4998" r="1.575" fill="#6B9FCB"/>
<circle cx="33.5" cy="33.4998" r="1.575" fill="#6B9FCB"/>
<circle cx="39.8" cy="33.4998" r="1.575" fill="#6B9FCB"/>
<path d="M95.08 37.96C95.1333 38.0933 95.16 38.2933 95.16 38.56C95.16 38.8 95.16 39 95.16 39.16C95.16 39.3733 95.12 39.5733 95.04 39.76C94.96 39.9467 94.8533 40.12 94.72 40.28C94.48 40.6 94.1333 40.84 93.68 41C93.04 41.2133 92.44 41.32 91.88 41.32C91.5867 41.3467 91.28 41.36 90.96 41.36C90.64 41.36 90.32 41.3867 90 41.44H89.84C87.7867 41.4667 85.6667 41.4667 83.48 41.44C82.9467 41.4133 82.3467 41.4133 81.68 41.44C81.0133 41.4933 80.36 41.48 79.72 41.4C79.08 41.3467 78.4933 41.2 77.96 40.96C77.4533 40.6933 77.0933 40.28 76.88 39.72C76.8267 39.5867 76.7867 39.4667 76.76 39.36C76.7333 39.2267 76.72 39.0933 76.72 38.96C76.6133 38.0533 76.5733 37.16 76.6 36.28C76.6267 35.4 76.64 34.5333 76.64 33.68L76.72 27.88V22.52C76.72 21.56 76.72 20.7067 76.72 19.96C76.7467 19.2133 76.7733 18.3867 76.8 17.48V17.28C76.8267 17.0133 76.84 16.7467 76.84 16.48C76.8667 16.2133 76.88 15.9467 76.88 15.68C76.9333 15.0667 77.08 14.5467 77.32 14.12C77.48 13.72 77.76 13.4 78.16 13.16C78.5067 12.92 78.92 12.8 79.4 12.8C79.5867 12.8 79.76 12.8133 79.92 12.84C80.1067 12.84 80.28 12.8533 80.44 12.88C80.6 12.9067 80.7467 12.96 80.88 13.04C81.04 13.12 81.2 13.2267 81.36 13.36C81.52 13.5467 81.6667 13.7733 81.8 14.04C81.9067 14.3333 81.9733 14.6267 82 14.92C82.0267 15.1067 82.0533 15.28 82.08 15.44C82.1067 15.6 82.12 15.76 82.12 15.92C82.0667 16.08 82.04 16.24 82.04 16.4C82.04 16.56 82.04 16.7067 82.04 16.84V17.56L81.88 36.4L89.8 36.48H91.68C91.84 36.48 92.0133 36.4933 92.2 36.52C92.3867 36.52 92.5733 36.5333 92.76 36.56C92.9733 36.5867 93.16 36.6133 93.32 36.64C93.48 36.6667 93.64 36.7067 93.8 36.76C94.0933 36.84 94.3333 36.9733 94.52 37.16C94.8133 37.4267 95 37.6933 95.08 37.96ZM100.928 24.16C101.728 23.76 102.568 23.48 103.448 23.32C104.328 23.1333 105.195 23.0933 106.048 23.2C106.928 23.28 107.768 23.5067 108.568 23.88C109.368 24.2267 110.115 24.7333 110.808 25.4C111.502 26.0933 112.035 26.8533 112.408 27.68C112.782 28.5067 113.048 29.4267 113.208 30.44C113.315 31.1333 113.488 31.7733 113.728 32.36C113.968 32.9467 114.222 33.5333 114.488 34.12C114.782 34.7067 115.048 35.2933 115.288 35.88C115.555 36.4667 115.768 37.08 115.928 37.72C116.062 38.3333 116.008 38.9333 115.768 39.52C115.555 40.08 115.102 40.4267 114.408 40.56C114.008 40.64 113.622 40.6133 113.248 40.48C112.902 40.32 112.582 40.1067 112.288 39.84C111.995 39.5467 111.728 39.24 111.488 38.92C111.275 38.5733 111.075 38.2533 110.888 37.96C110.275 38.76 109.608 39.3867 108.888 39.84C108.168 40.2667 107.302 40.5467 106.288 40.68C105.435 40.7867 104.622 40.8133 103.848 40.76C103.075 40.7067 102.248 40.56 101.368 40.32C100.222 40.0267 99.2751 39.52 98.5284 38.8C97.8084 38.0533 97.2484 37.2 96.8484 36.24C96.4751 35.2533 96.2751 34.2 96.2484 33.08C96.2218 31.96 96.3551 30.8533 96.6484 29.76C97.0218 28.32 97.5818 27.1467 98.3284 26.24C99.0751 25.3333 99.9418 24.64 100.928 24.16ZM101.928 28.84C101.555 29.2133 101.262 29.6533 101.048 30.16C100.835 30.6667 100.702 31.2 100.648 31.76C100.622 32.32 100.675 32.88 100.808 33.44C100.942 34 101.155 34.4933 101.448 34.92C101.715 35.2933 102.168 35.6133 102.808 35.88C103.448 36.12 104.115 36.2667 104.808 36.32C105.608 36.3733 106.302 36.16 106.888 35.68C107.502 35.2 107.955 34.6 108.248 33.88C108.568 33.1333 108.715 32.3467 108.688 31.52C108.662 30.6667 108.435 29.8933 108.008 29.2C107.688 28.6933 107.262 28.32 106.728 28.08C106.222 27.84 105.675 27.72 105.088 27.72C104.502 27.6933 103.915 27.7867 103.328 28C102.768 28.1867 102.302 28.4667 101.928 28.84ZM119.296 26.72C119.296 26.1067 119.283 25.4533 119.256 24.76C119.256 24.0667 119.376 23.44 119.616 22.88C119.83 22.3733 120.176 22.0133 120.656 21.8C121.163 21.56 121.656 21.5067 122.136 21.64C122.616 21.72 122.99 21.8667 123.256 22.08C123.523 22.2933 123.71 22.5467 123.816 22.84C123.95 23.1067 124.03 23.4267 124.056 23.8C124.083 24.1467 124.11 24.4933 124.136 24.84C124.403 24.36 124.736 23.9733 125.136 23.68C125.536 23.3867 125.95 23.1467 126.376 22.96C126.803 22.7733 127.203 22.64 127.576 22.56C127.976 22.48 128.283 22.44 128.496 22.44C129.51 22.44 130.51 22.6667 131.496 23.12C132.51 23.5467 133.35 24.16 134.016 24.96C134.39 25.44 134.67 25.9467 134.856 26.48C135.07 26.9867 135.216 27.52 135.296 28.08C135.403 28.64 135.47 29.2133 135.496 29.8C135.523 30.36 135.55 30.9333 135.576 31.52C135.71 33.2267 135.71 34.92 135.576 36.6C135.55 36.9467 135.536 37.3467 135.536 37.8C135.536 38.2533 135.496 38.7067 135.416 39.16C135.363 39.5867 135.243 39.9733 135.056 40.32C134.896 40.64 134.616 40.84 134.216 40.92C133.656 41.0533 133.19 41.08 132.816 41C132.47 40.9467 132.19 40.8267 131.976 40.64C131.763 40.4533 131.603 40.2133 131.496 39.92C131.39 39.6267 131.296 39.2933 131.216 38.92C131.163 38.6267 131.11 38.2933 131.056 37.92C131.03 37.52 131.003 37.12 130.976 36.72C130.976 36.32 130.963 35.9333 130.936 35.56C130.936 35.16 130.936 34.8 130.936 34.48C130.936 33.9733 130.923 33.4133 130.896 32.8C130.87 32.1867 130.87 31.6133 130.896 31.08C130.896 29.8267 130.563 28.88 129.896 28.24C129.256 27.5733 128.376 27.2933 127.256 27.4C126.403 27.5067 125.656 27.8533 125.016 28.44C124.376 29 124.07 29.7333 124.096 30.64C124.096 30.9867 124.096 31.3067 124.096 31.6C124.096 31.8933 124.083 32.1867 124.056 32.48C124.056 32.7733 124.056 33.0933 124.056 33.44C124.056 33.7867 124.056 34.1733 124.056 34.6C124.056 35.48 124.056 36.4133 124.056 37.4C124.056 38.36 123.936 39.1467 123.696 39.76C123.483 40.4 123.123 40.84 122.616 41.08C122.11 41.32 121.51 41.2533 120.816 40.88C120.523 40.72 120.283 40.5067 120.096 40.24C119.936 39.9467 119.803 39.64 119.696 39.32C119.616 39 119.563 38.68 119.536 38.36C119.51 38.0133 119.483 37.6933 119.456 37.4C119.376 36.52 119.323 35.7067 119.296 34.96C119.296 34.1867 119.296 33.36 119.296 32.48V26.72ZM155.505 33.44C155.505 34.2933 155.478 35.2133 155.425 36.2C155.398 37.1867 155.358 38.1067 155.305 38.96C155.305 39.76 155.265 40.56 155.185 41.36C155.131 42.0533 155.025 42.8 154.865 43.6C154.705 44.4267 154.478 45.1867 154.185 45.88C153.811 46.7867 153.305 47.56 152.665 48.2C152.025 48.8667 151.198 49.3467 150.185 49.64C149.331 49.8533 148.531 49.9867 147.785 50.04C147.038 50.12 146.238 50.1067 145.385 50C144.825 49.92 144.225 49.76 143.585 49.52C142.945 49.3067 142.345 49.0267 141.785 48.68C141.225 48.3333 140.731 47.92 140.305 47.44C139.878 46.9867 139.585 46.4667 139.425 45.88C139.238 45.16 139.225 44.5333 139.385 44C139.571 43.4667 139.851 43.08 140.225 42.84C140.598 42.6 141.038 42.56 141.545 42.72C142.051 42.88 142.531 43.2933 142.985 43.96C143.305 44.44 143.771 44.8267 144.385 45.12C144.998 45.4133 145.651 45.5867 146.345 45.64C147.038 45.6933 147.705 45.6 148.345 45.36C149.011 45.1467 149.531 44.76 149.905 44.2C150.171 43.8 150.358 43.2267 150.465 42.48C150.598 41.7333 150.678 41 150.705 40.28C149.345 40.84 147.945 41.0533 146.505 40.92C145.091 40.76 143.798 40.32 142.625 39.6C141.478 38.8533 140.545 37.8667 139.825 36.64C139.131 35.3867 138.838 33.9733 138.945 32.4C139.025 31.04 139.305 29.76 139.785 28.56C140.291 27.36 141.118 26.36 142.265 25.56C143.198 24.92 144.251 24.5067 145.425 24.32C146.598 24.1067 147.731 24 148.825 24C149.465 24 150.091 24 150.705 24C151.345 24 151.931 24.08 152.465 24.24C152.998 24.4 153.478 24.6667 153.905 25.04C154.331 25.4133 154.651 25.96 154.865 26.68C155.211 27.8 155.398 28.9067 155.425 30C155.478 31.0933 155.505 32.24 155.505 33.44ZM147.785 36.76C148.051 36.76 148.305 36.7333 148.545 36.68C148.811 36.6267 149.065 36.56 149.305 36.48C149.758 36.32 150.091 36.1067 150.305 35.84C150.545 35.5733 150.705 35.28 150.785 34.96C150.865 34.6133 150.891 34.24 150.865 33.84C150.865 33.44 150.865 33.0267 150.865 32.6C150.865 32.2533 150.851 31.8667 150.825 31.44C150.825 31.0133 150.798 30.6133 150.745 30.24C150.691 29.84 150.611 29.4933 150.505 29.2C150.398 28.9067 150.238 28.72 150.025 28.64C149.651 28.5333 149.225 28.4667 148.745 28.44C148.265 28.3867 147.785 28.3867 147.305 28.44C146.825 28.4667 146.358 28.56 145.905 28.72C145.478 28.8533 145.118 29.04 144.825 29.28C144.425 29.6267 144.118 30.0533 143.905 30.56C143.691 31.0667 143.558 31.6 143.505 32.16C143.478 32.72 143.518 33.2667 143.625 33.8C143.758 34.3333 143.985 34.8133 144.305 35.24C144.678 35.7733 145.185 36.16 145.825 36.4C146.465 36.64 147.118 36.76 147.785 36.76ZM163.908 22.92C164.788 22.4933 165.708 22.1867 166.668 22C167.628 21.8133 168.575 21.7733 169.508 21.88C170.468 21.9867 171.388 22.24 172.268 22.64C173.175 23.04 174.002 23.6 174.748 24.32C175.362 24.9333 175.895 25.68 176.348 26.56C176.802 27.4133 177.135 28.2533 177.348 29.08C177.802 30.5467 177.868 32.0267 177.548 33.52C177.228 35.0133 176.682 36.4 175.908 37.68C175.535 38.2667 175.068 38.8 174.508 39.28C173.975 39.7333 173.402 40.1067 172.788 40.4C171.988 40.7733 171.122 41.0267 170.188 41.16C169.255 41.32 168.348 41.36 167.468 41.28C165.868 41.2 164.455 40.8 163.228 40.08C162.028 39.36 161.055 38.44 160.308 37.32C159.588 36.2 159.108 34.9333 158.868 33.52C158.655 32.08 158.748 30.6133 159.148 29.12C159.575 27.52 160.188 26.2267 160.988 25.24C161.815 24.2267 162.788 23.4533 163.908 22.92ZM165.108 28.28C164.708 28.6533 164.402 29.12 164.188 29.68C163.975 30.24 163.842 30.8267 163.788 31.44C163.735 32.0267 163.775 32.6267 163.908 33.24C164.068 33.8267 164.308 34.36 164.628 34.84C164.895 35.24 165.375 35.5733 166.068 35.84C166.762 36.1067 167.482 36.2667 168.228 36.32C169.082 36.3733 169.828 36.1467 170.468 35.64C171.108 35.1067 171.588 34.4533 171.908 33.68C172.255 32.9067 172.415 32.0667 172.388 31.16C172.362 30.2533 172.122 29.4267 171.668 28.68C171.348 28.1467 170.895 27.76 170.308 27.52C169.748 27.2533 169.148 27.12 168.508 27.12C167.895 27.0933 167.282 27.1867 166.668 27.4C166.055 27.5867 165.535 27.88 165.108 28.28ZM195.121 32.67C195.074 33.44 195.028 34.2217 194.981 35.015C194.934 35.785 194.806 36.5317 194.596 37.255C194.409 37.9783 194.106 38.6317 193.686 39.215C193.289 39.7983 192.718 40.265 191.971 40.615C191.318 40.9417 190.618 41.1633 189.871 41.28C189.124 41.42 188.378 41.4783 187.631 41.455C186.884 41.4317 186.161 41.315 185.461 41.105C184.761 40.9183 184.131 40.65 183.571 40.3C183.011 39.95 182.556 39.495 182.206 38.935C181.856 38.375 181.576 37.7683 181.366 37.115C181.179 36.4617 181.051 35.785 180.981 35.085C180.911 34.385 180.864 33.7317 180.841 33.125C180.748 31.515 180.748 29.9283 180.841 28.365C180.841 28.0617 180.841 27.7233 180.841 27.35C180.841 26.9533 180.864 26.5683 180.911 26.195C180.981 25.8217 181.086 25.4833 181.226 25.18C181.366 24.8533 181.599 24.6083 181.926 24.445C182.626 24.0717 183.268 24.0483 183.851 24.375C184.458 24.7017 184.819 25.3783 184.936 26.405C185.006 26.9417 185.029 27.5367 185.006 28.19C185.006 28.8433 185.029 29.4383 185.076 29.975C185.099 30.7683 185.123 31.6317 185.146 32.565C185.169 33.475 185.298 34.2917 185.531 35.015C185.788 35.7383 186.196 36.2867 186.756 36.66C187.339 37.01 188.203 37.0217 189.346 36.695C189.883 36.5317 190.233 36.1233 190.396 35.47C190.583 34.8167 190.676 33.8483 190.676 32.565C190.676 32.005 190.664 31.3867 190.641 30.71C190.618 30.0333 190.606 29.3683 190.606 28.715C190.606 28.0383 190.618 27.42 190.641 26.86C190.688 26.2767 190.758 25.8333 190.851 25.53C190.968 25.11 191.213 24.795 191.586 24.585C191.959 24.375 192.356 24.27 192.776 24.27C193.196 24.2467 193.593 24.3283 193.966 24.515C194.339 24.7017 194.596 25.005 194.736 25.425C194.876 25.7983 194.969 26.2767 195.016 26.86C195.086 27.42 195.133 28.0383 195.156 28.715C195.179 29.3683 195.179 30.045 195.156 30.745C195.156 31.4217 195.144 32.0633 195.121 32.67ZM198.237 26.84C198.237 26.52 198.237 26.16 198.237 25.76C198.237 25.3333 198.25 24.9067 198.277 24.48C198.303 24.0267 198.343 23.6 198.397 23.2C198.477 22.7733 198.583 22.4 198.717 22.08C198.93 21.6 199.263 21.28 199.717 21.12C200.17 20.9333 200.663 20.8533 201.197 20.88C201.757 20.88 202.197 20.9733 202.517 21.16C202.837 21.3467 203.077 21.6 203.237 21.92C203.397 22.2133 203.49 22.56 203.517 22.96C203.57 23.3333 203.597 23.7333 203.597 24.16C203.837 23.7333 204.157 23.3867 204.557 23.12C204.983 22.8533 205.41 22.64 205.837 22.48C206.263 22.32 206.65 22.2133 206.997 22.16C207.343 22.08 207.543 22.04 207.597 22.04C208.263 21.9867 208.863 21.9733 209.397 22C209.957 22.0267 210.57 22.1467 211.237 22.36C211.663 22.52 212.103 22.7467 212.557 23.04C213.01 23.3067 213.41 23.6267 213.757 24C214.103 24.3733 214.33 24.7867 214.437 25.24C214.57 25.6667 214.517 26.12 214.277 26.6C213.903 27.2667 213.49 27.6 213.037 27.6C212.583 27.5733 212.09 27.4933 211.557 27.36C211.263 27.3067 210.917 27.1867 210.517 27C210.117 26.8133 209.77 26.6933 209.477 26.64C208.57 26.5067 207.77 26.5733 207.077 26.84C206.383 27.1067 205.783 27.4267 205.277 27.8C204.69 28.2533 204.183 28.7733 203.757 29.36V35.12C203.757 35.84 203.743 36.5867 203.717 37.36C203.717 38.1333 203.61 38.84 203.397 39.48C203.21 40.0933 202.877 40.6 202.397 41C201.943 41.3733 201.277 41.5333 200.397 41.48C199.917 41.4533 199.49 41.2267 199.117 40.8C198.743 40.3467 198.517 39.9067 198.437 39.48C198.383 39.08 198.343 38.6 198.317 38.04C198.29 37.48 198.263 36.8933 198.237 36.28C198.237 35.6667 198.237 35.0533 198.237 34.44C198.237 33.8 198.237 33.2133 198.237 32.68V26.84ZM217.768 26.72C217.768 26.1067 217.755 25.4533 217.728 24.76C217.728 24.0667 217.848 23.44 218.088 22.88C218.301 22.3733 218.648 22.0133 219.128 21.8C219.635 21.56 220.128 21.5067 220.608 21.64C221.088 21.72 221.461 21.8667 221.728 22.08C221.995 22.2933 222.181 22.5467 222.288 22.84C222.421 23.1067 222.501 23.4267 222.528 23.8C222.555 24.1467 222.581 24.4933 222.608 24.84C222.875 24.36 223.208 23.9733 223.608 23.68C224.008 23.3867 224.421 23.1467 224.848 22.96C225.275 22.7733 225.675 22.64 226.048 22.56C226.448 22.48 226.755 22.44 226.968 22.44C227.981 22.44 228.981 22.6667 229.968 23.12C230.981 23.5467 231.821 24.16 232.488 24.96C232.861 25.44 233.141 25.9467 233.328 26.48C233.541 26.9867 233.688 27.52 233.768 28.08C233.875 28.64 233.941 29.2133 233.968 29.8C233.995 30.36 234.021 30.9333 234.048 31.52C234.181 33.2267 234.181 34.92 234.048 36.6C234.021 36.9467 234.008 37.3467 234.008 37.8C234.008 38.2533 233.968 38.7067 233.888 39.16C233.835 39.5867 233.715 39.9733 233.528 40.32C233.368 40.64 233.088 40.84 232.688 40.92C232.128 41.0533 231.661 41.08 231.288 41C230.941 40.9467 230.661 40.8267 230.448 40.64C230.235 40.4533 230.075 40.2133 229.968 39.92C229.861 39.6267 229.768 39.2933 229.688 38.92C229.635 38.6267 229.581 38.2933 229.528 37.92C229.501 37.52 229.475 37.12 229.448 36.72C229.448 36.32 229.435 35.9333 229.408 35.56C229.408 35.16 229.408 34.8 229.408 34.48C229.408 33.9733 229.395 33.4133 229.368 32.8C229.341 32.1867 229.341 31.6133 229.368 31.08C229.368 29.8267 229.035 28.88 228.368 28.24C227.728 27.5733 226.848 27.2933 225.728 27.4C224.875 27.5067 224.128 27.8533 223.488 28.44C222.848 29 222.541 29.7333 222.568 30.64C222.568 30.9867 222.568 31.3067 222.568 31.6C222.568 31.8933 222.555 32.1867 222.528 32.48C222.528 32.7733 222.528 33.0933 222.528 33.44C222.528 33.7867 222.528 34.1733 222.528 34.6C222.528 35.48 222.528 36.4133 222.528 37.4C222.528 38.36 222.408 39.1467 222.168 39.76C221.955 40.4 221.595 40.84 221.088 41.08C220.581 41.32 219.981 41.2533 219.288 40.88C218.995 40.72 218.755 40.5067 218.568 40.24C218.408 39.9467 218.275 39.64 218.168 39.32C218.088 39 218.035 38.68 218.008 38.36C217.981 38.0133 217.955 37.6933 217.928 37.4C217.848 36.52 217.795 35.7067 217.768 34.96C217.768 34.1867 217.768 33.36 217.768 32.48V26.72ZM242.056 24.16C242.856 23.76 243.696 23.48 244.576 23.32C245.456 23.1333 246.323 23.0933 247.176 23.2C248.056 23.28 248.896 23.5067 249.696 23.88C250.496 24.2267 251.243 24.7333 251.936 25.4C252.63 26.0933 253.163 26.8533 253.536 27.68C253.91 28.5067 254.176 29.4267 254.336 30.44C254.443 31.1333 254.616 31.7733 254.856 32.36C255.096 32.9467 255.35 33.5333 255.616 34.12C255.91 34.7067 256.176 35.2933 256.416 35.88C256.683 36.4667 256.896 37.08 257.056 37.72C257.19 38.3333 257.136 38.9333 256.896 39.52C256.683 40.08 256.23 40.4267 255.536 40.56C255.136 40.64 254.75 40.6133 254.376 40.48C254.03 40.32 253.71 40.1067 253.416 39.84C253.123 39.5467 252.856 39.24 252.616 38.92C252.403 38.5733 252.203 38.2533 252.016 37.96C251.403 38.76 250.736 39.3867 250.016 39.84C249.296 40.2667 248.43 40.5467 247.416 40.68C246.563 40.7867 245.75 40.8133 244.976 40.76C244.203 40.7067 243.376 40.56 242.496 40.32C241.35 40.0267 240.403 39.52 239.656 38.8C238.936 38.0533 238.376 37.2 237.976 36.24C237.603 35.2533 237.403 34.2 237.376 33.08C237.35 31.96 237.483 30.8533 237.776 29.76C238.15 28.32 238.71 27.1467 239.456 26.24C240.203 25.3333 241.07 24.64 242.056 24.16ZM243.056 28.84C242.683 29.2133 242.39 29.6533 242.176 30.16C241.963 30.6667 241.83 31.2 241.776 31.76C241.75 32.32 241.803 32.88 241.936 33.44C242.07 34 242.283 34.4933 242.576 34.92C242.843 35.2933 243.296 35.6133 243.936 35.88C244.576 36.12 245.243 36.2667 245.936 36.32C246.736 36.3733 247.43 36.16 248.016 35.68C248.63 35.2 249.083 34.6 249.376 33.88C249.696 33.1333 249.843 32.3467 249.816 31.52C249.79 30.6667 249.563 29.8933 249.136 29.2C248.816 28.6933 248.39 28.32 247.856 28.08C247.35 27.84 246.803 27.72 246.216 27.72C245.63 27.6933 245.043 27.7867 244.456 28C243.896 28.1867 243.43 28.4667 243.056 28.84ZM265.704 37.8C265.678 37.9333 265.651 38.0667 265.624 38.2C265.624 38.3067 265.624 38.4267 265.624 38.56L265.384 39.4C265.331 39.5067 265.291 39.5733 265.264 39.6L265.144 39.84C265.011 40.1333 264.771 40.3733 264.424 40.56C263.784 40.88 263.104 40.96 262.384 40.8C261.931 40.7467 261.571 40.6133 261.304 40.4C261.038 40.2133 260.851 39.9867 260.744 39.72C260.638 39.4533 260.558 39.1867 260.504 38.92C260.424 38.6533 260.384 38.4133 260.384 38.2V15.8C260.384 15.6133 260.384 15.4533 260.384 15.32C260.411 15.16 260.438 15.0133 260.464 14.88C260.491 14.6933 260.518 14.5333 260.544 14.4C260.598 14.2667 260.651 14.12 260.704 13.96C260.784 13.6933 260.931 13.48 261.144 13.32C261.464 13.08 261.771 12.9467 262.064 12.92C262.251 12.8667 262.424 12.84 262.584 12.84C262.744 12.8133 262.931 12.8 263.144 12.8C263.518 12.8 263.944 12.9067 264.424 13.12C264.798 13.3333 265.064 13.6267 265.224 14C265.491 14.5333 265.624 15.0267 265.624 15.48C265.651 15.7467 265.664 16.1467 265.664 16.68C265.691 17.2133 265.704 17.6133 265.704 17.88V18.04C265.758 18.8933 265.784 19.72 265.784 20.52C265.784 21.2933 265.771 22.1467 265.744 23.08C265.744 23.9867 265.731 24.8667 265.704 25.72C265.704 26.5467 265.704 27.3733 265.704 28.2V36.6C265.704 36.7067 265.704 36.8133 265.704 36.92C265.731 37 265.744 37.0933 265.744 37.2C265.744 37.4667 265.731 37.6667 265.704 37.8Z" fill="#6B9FCB"/>
<path d="M76.321 68V57.0909H77.642V66.8281H82.7131V68H76.321ZM88.0185 68.1705C87.2301 68.1705 86.5501 67.9964 85.9783 67.6484C85.4102 67.2969 84.9716 66.8068 84.6626 66.1783C84.3572 65.5462 84.2045 64.8111 84.2045 63.973C84.2045 63.1349 84.3572 62.3963 84.6626 61.7571C84.9716 61.1143 85.4013 60.6136 85.9517 60.255C86.5057 59.8928 87.152 59.7116 87.8906 59.7116C88.3168 59.7116 88.7376 59.7827 89.1531 59.9247C89.5685 60.0668 89.9467 60.2976 90.2876 60.6172C90.6286 60.9332 90.9002 61.3523 91.1026 61.8743C91.305 62.3963 91.4062 63.0391 91.4062 63.8026V64.3352H85.0994V63.2486H90.1278C90.1278 62.7869 90.0355 62.375 89.8509 62.0128C89.6697 61.6506 89.4105 61.3647 89.0732 61.1552C88.7393 60.9457 88.3452 60.8409 87.8906 60.8409C87.3899 60.8409 86.9567 60.9652 86.5909 61.2138C86.2287 61.4588 85.9499 61.7784 85.7546 62.1726C85.5593 62.5668 85.4616 62.9893 85.4616 63.4403V64.1648C85.4616 64.7827 85.5682 65.3065 85.7812 65.7362C85.9979 66.1623 86.2979 66.4872 86.6815 66.7109C87.065 66.9311 87.5107 67.0412 88.0185 67.0412C88.3487 67.0412 88.647 66.995 88.9134 66.9027C89.1832 66.8068 89.4158 66.6648 89.6112 66.4766C89.8065 66.2848 89.9574 66.0469 90.0639 65.7628L91.2784 66.1037C91.1506 66.5156 90.9357 66.8778 90.6339 67.1903C90.332 67.4993 89.9592 67.7408 89.5153 67.9148C89.0714 68.0852 88.5724 68.1705 88.0185 68.1705ZM95.7262 68.1918C95.2077 68.1918 94.7372 68.0941 94.3146 67.8988C93.892 67.6999 93.5565 67.4141 93.3079 67.0412C93.0593 66.6648 92.935 66.2102 92.935 65.6776C92.935 65.2088 93.0273 64.8288 93.212 64.5376C93.3967 64.2429 93.6435 64.0121 93.9524 63.8452C94.2614 63.6783 94.6023 63.554 94.9751 63.4723C95.3516 63.3871 95.7298 63.3196 96.1097 63.2699C96.6069 63.206 97.0099 63.158 97.3189 63.1261C97.6314 63.0906 97.8587 63.032 98.0007 62.9503C98.1463 62.8686 98.2191 62.7266 98.2191 62.5241V62.4815C98.2191 61.956 98.0753 61.5476 97.7876 61.2564C97.5036 60.9652 97.0721 60.8196 96.4933 60.8196C95.8931 60.8196 95.4226 60.951 95.0817 61.2138C94.7408 61.4766 94.5011 61.7571 94.3626 62.0554L93.1694 61.6293C93.3825 61.1321 93.6665 60.745 94.0217 60.468C94.3803 60.1875 94.771 59.9922 95.1935 59.8821C95.6197 59.7685 96.0387 59.7116 96.4506 59.7116C96.7134 59.7116 97.0153 59.7436 97.3562 59.8075C97.7006 59.8679 98.0327 59.994 98.3523 60.1857C98.6754 60.3775 98.9435 60.6669 99.1566 61.054C99.3697 61.4411 99.4762 61.9595 99.4762 62.6094V68H98.2191V66.892H98.1552C98.07 67.0696 97.9279 67.2596 97.729 67.462C97.5302 67.6644 97.2656 67.8366 96.9354 67.9787C96.6051 68.1207 96.2021 68.1918 95.7262 68.1918ZM95.918 67.0625C96.4151 67.0625 96.8342 66.9648 97.1751 66.7695C97.5195 66.5742 97.7788 66.3221 97.9528 66.0131C98.1303 65.7042 98.2191 65.3793 98.2191 65.0384V63.8878C98.1658 63.9517 98.0487 64.0103 97.8675 64.0636C97.69 64.1133 97.484 64.1577 97.2496 64.1967C97.0188 64.2322 96.7933 64.2642 96.5732 64.2926C96.3565 64.3175 96.1808 64.3388 96.0458 64.3565C95.7191 64.3991 95.4137 64.4684 95.1296 64.5643C94.8491 64.6566 94.6218 64.7969 94.4478 64.9851C94.2773 65.1697 94.1921 65.4219 94.1921 65.7415C94.1921 66.1783 94.3537 66.5085 94.6768 66.7322C95.0036 66.9524 95.4173 67.0625 95.918 67.0625ZM101.771 68V59.8182H102.985V61.054H103.07C103.22 60.6491 103.489 60.3207 103.88 60.0685C104.271 59.8164 104.711 59.6903 105.201 59.6903C105.293 59.6903 105.409 59.6921 105.547 59.6957C105.686 59.6992 105.791 59.7045 105.862 59.7116V60.9901C105.819 60.9794 105.721 60.9634 105.569 60.9421C105.419 60.9173 105.261 60.9048 105.095 60.9048C104.697 60.9048 104.342 60.9883 104.029 61.1552C103.72 61.3185 103.475 61.5458 103.294 61.837C103.117 62.1246 103.028 62.4531 103.028 62.8224V68H101.771ZM108.609 63.0781V68H107.352V59.8182H108.566V61.0966H108.673C108.865 60.6811 109.156 60.3473 109.546 60.0952C109.937 59.8395 110.441 59.7116 111.059 59.7116C111.613 59.7116 112.098 59.8253 112.513 60.0526C112.929 60.2763 113.252 60.6172 113.483 61.0753C113.714 61.5298 113.829 62.1051 113.829 62.8011V68H112.572V62.8864C112.572 62.2436 112.405 61.7429 112.071 61.3842C111.737 61.022 111.279 60.8409 110.697 60.8409C110.296 60.8409 109.937 60.9279 109.621 61.1019C109.308 61.2759 109.062 61.5298 108.881 61.8636C108.699 62.1974 108.609 62.6023 108.609 63.0781ZM116.126 68V59.8182H117.383V68H116.126ZM116.765 58.4545C116.52 58.4545 116.309 58.3711 116.131 58.2042C115.957 58.0373 115.87 57.8366 115.87 57.6023C115.87 57.3679 115.957 57.1673 116.131 57.0004C116.309 56.8335 116.52 56.75 116.765 56.75C117.01 56.75 117.22 56.8335 117.394 57.0004C117.571 57.1673 117.66 57.3679 117.66 57.6023C117.66 57.8366 117.571 58.0373 117.394 58.2042C117.22 58.3711 117.01 58.4545 116.765 58.4545ZM120.943 63.0781V68H119.686V59.8182H120.9V61.0966H121.007C121.199 60.6811 121.49 60.3473 121.88 60.0952C122.271 59.8395 122.775 59.7116 123.393 59.7116C123.947 59.7116 124.432 59.8253 124.847 60.0526C125.263 60.2763 125.586 60.6172 125.817 61.0753C126.048 61.5298 126.163 62.1051 126.163 62.8011V68H124.906V62.8864C124.906 62.2436 124.739 61.7429 124.405 61.3842C124.071 61.022 123.613 60.8409 123.031 60.8409C122.63 60.8409 122.271 60.9279 121.955 61.1019C121.642 61.2759 121.396 61.5298 121.214 61.8636C121.033 62.1974 120.943 62.6023 120.943 63.0781ZM131.763 71.2386C131.155 71.2386 130.633 71.1605 130.197 71.0043C129.76 70.8516 129.396 70.6491 129.105 70.397C128.817 70.1484 128.588 69.8821 128.418 69.598L129.419 68.8949C129.533 69.044 129.676 69.2145 129.85 69.4062C130.024 69.6016 130.262 69.7702 130.564 69.9123C130.87 70.0579 131.269 70.1307 131.763 70.1307C132.423 70.1307 132.968 69.9709 133.398 69.6513C133.828 69.3317 134.043 68.831 134.043 68.1491V66.4872H133.936C133.844 66.6364 133.712 66.821 133.542 67.0412C133.375 67.2578 133.133 67.4513 132.817 67.6218C132.505 67.7887 132.082 67.8722 131.55 67.8722C130.889 67.8722 130.296 67.7159 129.771 67.4034C129.248 67.0909 128.835 66.6364 128.529 66.0398C128.228 65.4432 128.077 64.7187 128.077 63.8665C128.077 63.0284 128.224 62.2987 128.519 61.6772C128.813 61.0522 129.224 60.5692 129.749 60.2283C130.275 59.8839 130.882 59.7116 131.571 59.7116C132.104 59.7116 132.526 59.8004 132.839 59.978C133.155 60.152 133.396 60.3509 133.563 60.5746C133.734 60.7947 133.865 60.9759 133.957 61.1179H134.085V59.8182H135.3V68.2344C135.3 68.9375 135.14 69.5092 134.82 69.9496C134.504 70.3935 134.078 70.7184 133.542 70.9244C133.009 71.1339 132.416 71.2386 131.763 71.2386ZM131.72 66.7429C132.224 66.7429 132.65 66.6275 132.998 66.3967C133.347 66.1658 133.611 65.8338 133.792 65.4006C133.973 64.9673 134.064 64.4489 134.064 63.8452C134.064 63.2557 133.975 62.7354 133.797 62.2844C133.62 61.8335 133.357 61.4801 133.009 61.2244C132.661 60.9687 132.231 60.8409 131.72 60.8409C131.187 60.8409 130.744 60.9759 130.388 61.2457C130.037 61.5156 129.772 61.8778 129.595 62.3324C129.421 62.7869 129.334 63.2912 129.334 63.8452C129.334 64.4134 129.422 64.9158 129.6 65.3526C129.781 65.7859 130.047 66.1268 130.399 66.3754C130.754 66.6204 131.195 66.7429 131.72 66.7429ZM141.99 68V57.0909H143.247V61.1179H143.354C143.446 60.9759 143.574 60.7947 143.737 60.5746C143.904 60.3509 144.142 60.152 144.451 59.978C144.763 59.8004 145.186 59.7116 145.719 59.7116C146.408 59.7116 147.015 59.8839 147.54 60.2283C148.066 60.5728 148.476 61.0611 148.771 61.6932C149.066 62.3253 149.213 63.071 149.213 63.9304C149.213 64.7969 149.066 65.5479 148.771 66.1836C148.476 66.8157 148.068 67.3058 147.546 67.6538C147.024 67.9982 146.422 68.1705 145.74 68.1705C145.214 68.1705 144.794 68.0835 144.478 67.9094C144.161 67.7319 143.918 67.5312 143.748 67.3075C143.577 67.0803 143.446 66.892 143.354 66.7429H143.204V68H141.99ZM143.226 63.9091C143.226 64.527 143.316 65.0721 143.497 65.5444C143.679 66.0131 143.943 66.3807 144.291 66.647C144.639 66.9098 145.065 67.0412 145.57 67.0412C146.095 67.0412 146.534 66.9027 146.885 66.6257C147.24 66.3452 147.507 65.9687 147.684 65.4964C147.865 65.0206 147.956 64.4915 147.956 63.9091C147.956 63.3338 147.867 62.8153 147.69 62.3537C147.516 61.8885 147.251 61.521 146.896 61.2511C146.544 60.9776 146.102 60.8409 145.57 60.8409C145.058 60.8409 144.628 60.9705 144.28 61.2298C143.932 61.4854 143.67 61.8441 143.492 62.3058C143.315 62.7638 143.226 63.2983 143.226 63.9091ZM151.653 71.0682C151.44 71.0682 151.25 71.0504 151.083 71.0149C150.916 70.983 150.8 70.951 150.736 70.919L151.056 69.8111C151.361 69.8892 151.631 69.9176 151.866 69.8963C152.1 69.875 152.308 69.7702 152.489 69.582C152.674 69.3974 152.842 69.0973 152.995 68.6818L153.229 68.0426L150.204 59.8182H151.567L153.826 66.3381H153.911L156.17 59.8182H157.533L154.06 69.1932C153.904 69.6158 153.71 69.9656 153.48 70.2425C153.249 70.5231 152.981 70.7308 152.675 70.8658C152.373 71.0007 152.033 71.0682 151.653 71.0682ZM165.265 68L162.772 59.8182H164.093L165.862 66.0824H165.947L167.694 59.8182H169.036L170.762 66.0611H170.847L172.616 59.8182H173.937L171.444 68H170.208L168.418 61.7145H168.291L166.501 68H165.265ZM175.599 68V59.8182H176.813V61.054H176.899C177.048 60.6491 177.318 60.3207 177.708 60.0685C178.099 59.8164 178.539 59.6903 179.029 59.6903C179.122 59.6903 179.237 59.6921 179.375 59.6957C179.514 59.6992 179.619 59.7045 179.69 59.7116V60.9901C179.647 60.9794 179.549 60.9634 179.397 60.9421C179.248 60.9173 179.09 60.9048 178.923 60.9048C178.525 60.9048 178.17 60.9883 177.857 61.1552C177.548 61.3185 177.303 61.5458 177.122 61.837C176.945 62.1246 176.856 62.4531 176.856 62.8224V68H175.599ZM181.18 68V59.8182H182.437V68H181.18ZM181.819 58.4545C181.574 58.4545 181.363 58.3711 181.185 58.2042C181.011 58.0373 180.924 57.8366 180.924 57.6023C180.924 57.3679 181.011 57.1673 181.185 57.0004C181.363 56.8335 181.574 56.75 181.819 56.75C182.064 56.75 182.274 56.8335 182.448 57.0004C182.625 57.1673 182.714 57.3679 182.714 57.6023C182.714 57.8366 182.625 58.0373 182.448 58.2042C182.274 58.3711 182.064 58.4545 181.819 58.4545ZM188.298 59.8182V60.8835H184.058V59.8182H188.298ZM185.293 57.858H186.551V65.6562C186.551 66.0114 186.602 66.2777 186.705 66.4553C186.812 66.6293 186.946 66.7464 187.11 66.8068C187.277 66.8636 187.453 66.892 187.637 66.892C187.776 66.892 187.889 66.8849 187.978 66.8707C188.067 66.853 188.138 66.8388 188.191 66.8281L188.447 67.9574C188.362 67.9893 188.243 68.0213 188.09 68.0533C187.937 68.0888 187.744 68.1065 187.509 68.1065C187.154 68.1065 186.806 68.0302 186.465 67.8775C186.128 67.7248 185.847 67.4922 185.624 67.1797C185.403 66.8672 185.293 66.473 185.293 65.9972V57.858ZM190.189 68V59.8182H191.446V68H190.189ZM190.828 58.4545C190.583 58.4545 190.372 58.3711 190.194 58.2042C190.02 58.0373 189.933 57.8366 189.933 57.6023C189.933 57.3679 190.02 57.1673 190.194 57.0004C190.372 56.8335 190.583 56.75 190.828 56.75C191.073 56.75 191.282 56.8335 191.456 57.0004C191.634 57.1673 191.723 57.3679 191.723 57.6023C191.723 57.8366 191.634 58.0373 191.456 58.2042C191.282 58.3711 191.073 58.4545 190.828 58.4545ZM195.005 63.0781V68H193.748V59.8182H194.963V61.0966H195.069C195.261 60.6811 195.552 60.3473 195.943 60.0952C196.333 59.8395 196.838 59.7116 197.456 59.7116C198.01 59.7116 198.494 59.8253 198.91 60.0526C199.325 60.2763 199.648 60.6172 199.879 61.0753C200.11 61.5298 200.225 62.1051 200.225 62.8011V68H198.968V62.8864C198.968 62.2436 198.801 61.7429 198.468 61.3842C198.134 61.022 197.676 60.8409 197.093 60.8409C196.692 60.8409 196.333 60.9279 196.017 61.1019C195.705 61.2759 195.458 61.5298 195.277 61.8636C195.096 62.1974 195.005 62.6023 195.005 63.0781ZM205.825 71.2386C205.218 71.2386 204.696 71.1605 204.259 71.0043C203.822 70.8516 203.458 70.6491 203.167 70.397C202.88 70.1484 202.65 69.8821 202.48 69.598L203.481 68.8949C203.595 69.044 203.739 69.2145 203.913 69.4062C204.087 69.6016 204.325 69.7702 204.627 69.9123C204.932 70.0579 205.332 70.1307 205.825 70.1307C206.486 70.1307 207.031 69.9709 207.46 69.6513C207.89 69.3317 208.105 68.831 208.105 68.1491V66.4872H207.998C207.906 66.6364 207.775 66.821 207.604 67.0412C207.437 67.2578 207.196 67.4513 206.88 67.6218C206.567 67.7887 206.145 67.8722 205.612 67.8722C204.952 67.8722 204.359 67.7159 203.833 67.4034C203.311 67.0909 202.897 66.6364 202.592 66.0398C202.29 65.4432 202.139 64.7187 202.139 63.8665C202.139 63.0284 202.286 62.2987 202.581 61.6772C202.876 61.0522 203.286 60.5692 203.812 60.2283C204.337 59.8839 204.945 59.7116 205.633 59.7116C206.166 59.7116 206.589 59.8004 206.901 59.978C207.217 60.152 207.459 60.3509 207.626 60.5746C207.796 60.7947 207.927 60.9759 208.02 61.1179H208.148V59.8182H209.362V68.2344C209.362 68.9375 209.202 69.5092 208.883 69.9496C208.567 70.3935 208.141 70.7184 207.604 70.9244C207.072 71.1339 206.479 71.2386 205.825 71.2386ZM205.783 66.7429C206.287 66.7429 206.713 66.6275 207.061 66.3967C207.409 66.1658 207.674 65.8338 207.855 65.4006C208.036 64.9673 208.126 64.4489 208.126 63.8452C208.126 63.2557 208.038 62.7354 207.86 62.2844C207.682 61.8335 207.42 61.4801 207.072 61.2244C206.724 60.9687 206.294 60.8409 205.783 60.8409C205.25 60.8409 204.806 60.9759 204.451 61.2457C204.099 61.5156 203.835 61.8778 203.657 62.3324C203.483 62.7869 203.396 63.2912 203.396 63.8452C203.396 64.4134 203.485 64.9158 203.663 65.3526C203.844 65.7859 204.11 66.1268 204.462 66.3754C204.817 66.6204 205.257 66.7429 205.783 66.7429Z" fill="#6B9FCB"/>
</svg>
